<svg id="레이어_1" data-name="레이어 1" xmlns="http://www.w3.org/2000/svg" viewBox="0 0 190.16 268.55"><defs><style>.cls-1{fill:#b5bff1;}.cls-1,.cls-2,.cls-6,.cls-7{stroke:#231815;}.cls-1,.cls-2,.cls-3,.cls-4,.cls-5,.cls-6,.cls-7{stroke-miterlimit:10;}.cls-2{fill:#a5b0d6;}.cls-3,.cls-6{fill:none;}.cls-3,.cls-4,.cls-5{stroke:#000;}.cls-4{fill:#ffb900;}.cls-5,.cls-7,.cls-9{fill:#fff;}.cls-8{fill:red;}.cls-10{fill:#28150b;}</style></defs><title>hwibari_smile_2</title><path class="cls-1" d="M25.89,128.5s-9.08,28.38-9.5,43.65c-.26,9.06,5,17.31,12.73,18.94l.88.15-3.27-52.43Z"/><polygon class="cls-1" points="24.89 120.83 133.32 120.83 133.32 258.75 34.86 258.75 24.89 120.83"/><polygon class="cls-2" points="178.78 120.83 170.27 258.75 133.32 258.75 133.32 120.83 178.78 120.83"/><line class="cls-3" x1="58.56" y1="161.5" x2="58.56" y2="242.7"/><line class="cls-3" x1="84.67" y1="161.5" x2="84.67" y2="242.7"/><path class="cls-4" d="M93.56,252.68s-7.11.48-10.08,7.24A3.07,3.07,0,0,0,85,264c1.38.59,3.63,1,7.3.85,0,0,11.46-1.67,13.8-3.79,0,0,6-3-1-6.34C105.13,254.68,100.79,252.35,93.56,252.68Z"/><path class="cls-4" d="M50.81,252.68s-7.11.48-10.08,7.24a3.07,3.07,0,0,0,1.55,4c1.38.59,3.63,1,7.3.85,0,0,11.46-1.67,13.8-3.79,0,0,6-3-1-6.34C62.38,254.68,58,252.35,50.81,252.68Z"/><polygon class="cls-1" points="54.69 24.45 156.05 25.84 129.04 116.62 26.91 117.64 54.69 24.45"/><path class="cls-5" d="M38.26,110.05c.58.2,81.32.12,81.32.12l26.35-84.34L64.24,24.49Z"/><ellipse class="cls-6" cx="77.71" cy="53.67" rx="11.63" ry="6.98" transform="translate(18.57 127.3) rotate(-85.86)"/><ellipse class="cls-6" cx="91.83" cy="54.69" rx="11.63" ry="6.98" transform="translate(30.65 142.33) rotate(-85.86)"/><path class="cls-6" d="M70.7,54.45s6.44-6.68,13.65,2"/><path class="cls-6" d="M85,55.62s6.44-6.69,13.65,2"/><path class="cls-2" d="M180.32,117.64,156.21,26.45a.18.18,0,0,0-.35,0l-27.54,91.19Z"/><path class="cls-7" d="M177.45,116.62H24.75a4.58,4.58,0,0,0-4.58,4.59h0a4.59,4.59,0,0,0,4.58,4.59h152.7a4.6,4.6,0,0,0,4.59-4.59h0A4.59,4.59,0,0,0,177.45,116.62Z"/><path class="cls-6" d="M143.55,135s-1.22,48.8,10.46,54.81c0,0,14.72,10.94,10.55-56.4"/><path class="cls-4" d="M91.57,70.52l-16.14-.75S72,69.47,71.81,72c0,0,2.53,6,8.81,7.46,0,0,3.66.57,5.33,0a14.13,14.13,0,0,0,8.66-5.87S96.18,70.74,91.57,70.52Z"/><line class="cls-6" x1="87.11" y1="74.68" x2="79.33" y2="74.32"/><path class="cls-8" d="M22.69,43.44c-3.26-1.81-7.15-6-7.6-9.41a3.86,3.86,0,0,1,1.17-3.62,3.88,3.88,0,0,1,2.81-1.26c2.17,0,3.89,2.17,4,2.35.18-.27,1.81-2.35,4.07-2.35a3.71,3.71,0,0,1,2.8,1.26A3.84,3.84,0,0,1,31.1,34c-.46,3.44-4.34,7.6-7.6,9.41l-.36.18-.45-.18Z"/><path class="cls-9" d="M26.57,52.21A17.31,17.31,0,1,1,40.05,31.77a14.9,14.9,0,0,1,.36,3.44A17.22,17.22,0,0,1,33.9,48.77v10l-7.33-6.6Zm-7.5-23.06a3.73,3.73,0,0,0-2.81,1.26A3.86,3.86,0,0,0,15.09,34c.54,3.89,5.15,8.14,8.05,9.68,3-1.54,7.5-5.79,8.05-9.68a4.26,4.26,0,0,0-4-4.88,5.6,5.6,0,0,0-3.44,1.62l-.63.64-.64-.64a5.36,5.36,0,0,0-3.43-1.62Z"/><path class="cls-10" d="M23.14,17a18.22,18.22,0,1,0,.09,36.44,17.69,17.69,0,0,0,3.07-.27l7.06,6.33a.87.87,0,0,0,1.26-.09.82.82,0,0,0,.27-.63V49.22A18.22,18.22,0,0,0,23.14,17Zm10.22,31a1.11,1.11,0,0,0-.36.72v8l-5.79-5.25a.82.82,0,0,0-.64-.27h-.18A16.42,16.42,0,1,1,39.24,32a20.1,20.1,0,0,1,.36,3.35,16.48,16.48,0,0,1-6.24,12.75Z"/><path class="cls-10" d="M27.21,28.24a6.37,6.37,0,0,0-4.07,1.9,6,6,0,0,0-4.07-1.9,4.7,4.7,0,0,0-3.44,1.54,4.83,4.83,0,0,0-1.45,4.34c.64,4.25,5.34,8.68,8.6,10.31a1.25,1.25,0,0,0,.81,0c3.17-1.63,8-6.06,8.59-10.31a4.8,4.8,0,0,0-1.45-4.34,6,6,0,0,0-3.52-1.54Zm3.07,5.61c-.45,3.07-4.07,7-7.14,8.77C20,40.9,16.36,36.92,16,33.85a3,3,0,0,1,.91-2.8,2.91,2.91,0,0,1,2.26-1c1.81,0,3.25,2,3.25,2a.82.82,0,0,0,1.27.18c.09-.09.18-.09.18-.18s1.45-2,3.35-2a3.64,3.64,0,0,1,2.26,1,3,3,0,0,1,.81,2.8Z"/></svg>