<svg width="36" height="36" viewBox="0 0 36 36" fill="none" xmlns="http://www.w3.org/2000/svg">
<g clip-path="url(#clip0_1004_1469)">
<path d="M18 0C8.1 0 0 8.1 0 18C0 27.9 8.1 36 18 36C27.9 36 36 27.9 36 18C36 8.1 27.9 0 18 0ZM24.4286 21.8572C24.4286 23.2714 23.2714 24.4286 21.8572 24.4286H14.1428C12.7286 24.4286 11.5714 23.2714 11.5714 21.8572V14.1428C11.5714 12.7286 12.7286 11.5714 14.1428 11.5714H21.8572C23.2714 11.5714 24.4286 12.7286 24.4286 14.1428V21.8572Z" fill="#734EF7"/>
</g>
<defs>
<clipPath id="clip0_1004_1469">
<rect width="36" height="36" fill="white"/>
</clipPath>
</defs>
</svg>
