<svg id="레이어_1" data-name="레이어 1" xmlns="http://www.w3.org/2000/svg" viewBox="0 0 190.16 268.55"><defs><style>.cls-1{fill:#b5bff1;}.cls-1,.cls-2,.cls-6,.cls-7{stroke:#231815;}.cls-1,.cls-2,.cls-3,.cls-4,.cls-5,.cls-6,.cls-7{stroke-miterlimit:10;}.cls-2{fill:#a5b0d6;}.cls-3,.cls-6{fill:none;}.cls-3,.cls-4,.cls-5{stroke:#000;}.cls-4{fill:#ffb900;}.cls-10,.cls-5,.cls-7{fill:#fff;}.cls-8{fill:#fe3934;}.cls-9{fill:#dd2323;}</style></defs><title>hwibari_smile_1</title><path class="cls-1" d="M25.89,128.5s-9.08,28.38-9.5,43.65c-.26,9.06,5,17.31,12.73,18.94l.88.15-3.27-52.43Z"/><polygon class="cls-1" points="24.89 120.83 133.32 120.83 133.32 258.75 34.86 258.75 24.89 120.83"/><polygon class="cls-2" points="178.78 120.83 170.27 258.75 133.32 258.75 133.32 120.83 178.78 120.83"/><line class="cls-3" x1="58.56" y1="161.5" x2="58.56" y2="242.7"/><line class="cls-3" x1="84.67" y1="161.5" x2="84.67" y2="242.7"/><path class="cls-4" d="M93.56,252.68s-7.11.48-10.08,7.24A3.07,3.07,0,0,0,85,264c1.38.59,3.63,1,7.3.85,0,0,11.46-1.67,13.8-3.79,0,0,6-3-1-6.34C105.13,254.68,100.79,252.35,93.56,252.68Z"/><path class="cls-4" d="M50.81,252.68s-7.11.48-10.08,7.24a3.07,3.07,0,0,0,1.55,4c1.38.59,3.63,1,7.3.85,0,0,11.46-1.67,13.8-3.79,0,0,6-3-1-6.34C62.38,254.68,58,252.35,50.81,252.68Z"/><polygon class="cls-1" points="54.69 24.45 156.05 25.84 129.04 116.62 26.91 117.64 54.69 24.45"/><path class="cls-5" d="M38.26,110.05c.58.2,81.32.12,81.32.12l26.35-84.34L64.24,24.49Z"/><ellipse class="cls-6" cx="77.71" cy="53.67" rx="11.63" ry="6.98" transform="translate(18.57 127.3) rotate(-85.86)"/><ellipse class="cls-6" cx="91.83" cy="54.69" rx="11.63" ry="6.98" transform="translate(30.65 142.33) rotate(-85.86)"/><path class="cls-6" d="M70.7,54.45s6.44-6.68,13.65,2"/><path class="cls-6" d="M85,55.62s6.44-6.69,13.65,2"/><path class="cls-2" d="M180.32,117.64,156.21,26.45a.18.18,0,0,0-.35,0l-27.54,91.19Z"/><path class="cls-7" d="M177.45,116.62H24.75a4.58,4.58,0,0,0-4.58,4.59h0a4.59,4.59,0,0,0,4.58,4.59h152.7a4.6,4.6,0,0,0,4.59-4.59h0A4.59,4.59,0,0,0,177.45,116.62Z"/><path class="cls-6" d="M143.55,135s-1.22,48.8,10.46,54.81c0,0,14.72,10.94,10.55-56.4"/><path class="cls-4" d="M91.57,70.52l-16.14-.75S72,69.47,71.81,72c0,0,2.53,6,8.81,7.46,0,0,3.66.57,5.33,0a14.13,14.13,0,0,0,8.66-5.87S96.18,70.74,91.57,70.52Z"/><line class="cls-6" x1="87.11" y1="74.68" x2="79.33" y2="74.32"/><path class="cls-8" d="M20.74,29.3a2.92,2.92,0,0,0-.07-4.06h0a2.93,2.93,0,0,0-4.06-.07,2.93,2.93,0,0,0-4.06.07h0a2.93,2.93,0,0,0-.07,4.06l4.13,4.13Z"/><path class="cls-9" d="M16.61,25.17a2.93,2.93,0,0,0-4.06.07h0a2.93,2.93,0,0,0-.07,4.06l4.13,4.13"/><path class="cls-8" d="M32.64,29.3a2.92,2.92,0,0,0-.07-4.06h0a2.93,2.93,0,0,0-4.06-.07,2.93,2.93,0,0,0-4.06.07h0a2.92,2.92,0,0,0-.07,4.06l4.13,4.13Z"/><path class="cls-9" d="M28.51,25.17a2.93,2.93,0,0,0-4.06.07h0a2.92,2.92,0,0,0-.07,4.06l4.13,4.13"/><path class="cls-8" d="M44.54,29.3a2.93,2.93,0,0,0-.07-4.06h0a2.93,2.93,0,0,0-4.06-.07,2.93,2.93,0,0,0-4.06.07h0a2.92,2.92,0,0,0-.07,4.06l4.13,4.13Z"/><path class="cls-9" d="M40.41,25.17a2.93,2.93,0,0,0-4.06.07h0a2.92,2.92,0,0,0-.07,4.06l4.13,4.13"/><path d="M28.53,34.15,24,29.65a3.43,3.43,0,0,1,4.5-5.13A3.43,3.43,0,0,1,33,29.65h0ZM24.77,29l3.76,3.77L32.3,29a2.42,2.42,0,0,0-3.42-3.41l-.35.33-.34-.33A2.42,2.42,0,0,0,24.77,29Z"/><path d="M16.61,34.15l-4.5-4.5a3.43,3.43,0,0,1,4.5-5.13,3.43,3.43,0,0,1,4.5,5.13h0ZM12.85,29l3.76,3.77L20.38,29A2.42,2.42,0,0,0,17,25.54l-.35.33-.34-.33A2.42,2.42,0,0,0,12.85,29Z"/><path d="M40.41,34.17l-4.5-4.5a3.42,3.42,0,0,1,4.5-5.12,3.43,3.43,0,0,1,4.5,5.12h0ZM36.64,29l3.77,3.77L44.17,29a2.41,2.41,0,0,0-3.42-3.4l-.34.32-.35-.32A2.41,2.41,0,0,0,36.64,29Z"/><rect class="cls-10" x="16.73" y="29.73" width="1.07" height="1.01" transform="translate(-16.32 21.07) rotate(-45)"/><path class="cls-10" d="M18.83,29.39l-.72-.72.63-.63a1,1,0,0,0,0-1.43l.72-.72a2,2,0,0,1,0,2.87Z"/><rect class="cls-10" x="28.75" y="29.73" width="1.07" height="1.01" transform="translate(-12.8 29.57) rotate(-45)"/><path class="cls-10" d="M30.85,29.39l-.71-.72.63-.63a1,1,0,0,0,.29-.71,1,1,0,0,0-.29-.72l.71-.72a2,2,0,0,1,.6,1.44,2,2,0,0,1-.6,1.43Z"/><rect class="cls-10" x="40.78" y="29.73" width="1.07" height="1.01" transform="translate(-9.28 38.07) rotate(-45)"/><path class="cls-10" d="M42.81,29.45l-.71-.71.69-.7a1,1,0,0,0,.3-.71,1,1,0,0,0-.3-.72l.72-.72a2,2,0,0,1,.59,1.44,2,2,0,0,1-.59,1.43Z"/></svg>