<?xml version="1.0" encoding="UTF-8"?>
<svg id="_레이어_1" data-name="레이어 1" xmlns="http://www.w3.org/2000/svg" viewBox="0 0 190.16 268.55">
  <defs>
    <style>
      .cls-1, .cls-2 {
        fill: #fff;
      }

      .cls-1, .cls-2, .cls-3, .cls-4, .cls-5, .cls-6, .cls-7 {
        stroke-miterlimit: 10;
      }

      .cls-1, .cls-3, .cls-7 {
        stroke: #000;
      }

      .cls-2, .cls-4, .cls-5, .cls-6 {
        stroke: #231815;
      }

      .cls-3 {
        fill: #ffb900;
      }

      .cls-4, .cls-8 {
        fill: #a5b0d6;
      }

      .cls-5 {
        fill: #b5bff1;
      }

      .cls-6, .cls-7 {
        fill: none;
      }

      .cls-9 {
        fill: #231815;
      }

      .cls-9, .cls-8 {
        stroke-width: 0px;
      }
    </style>
  </defs>
  <polygon class="cls-5" points="24.89 120.83 133.32 120.83 133.32 258.75 34.86 258.75 24.89 120.83"/>
  <polygon class="cls-4" points="178.78 120.83 170.27 258.75 133.32 258.75 133.32 120.83 178.78 120.83"/>
  <path class="cls-5" d="m26.34,140.81l-5.09,6.58s3.68-2.84,5.09-1.2v-5.39Z"/>
  <ellipse class="cls-5" cx="24.64" cy="153.85" rx="6.33" ry="7.66"/>
  <line class="cls-7" x1="58.56" y1="161.5" x2="58.56" y2="242.7"/>
  <line class="cls-7" x1="84.67" y1="161.5" x2="84.67" y2="242.7"/>
  <polygon class="cls-5" points="38.1 120.83 115.73 120.83 83.48 196.51 9.09 196.51 38.1 120.83"/>
  <path class="cls-1" d="m16.87,190.35c.65.16,60.29,0,60.29,0l29.33-69.53h-63.53l-26.09,69.53Z"/>
  <path class="cls-4" d="m138.26,175.93l-22.17-54.22c-.13-.33-.6-.33-.74,0l-31.88,74.81,54.78-20.58Z"/>
  <path class="cls-2" d="m145.99,178.03l-.14-.37c-.83-2.25-3.33-3.4-5.58-2.57l-58.17,21.43H8.44c-2.42,0-4.38,1.96-4.38,4.38h0c0,2.42,1.96,4.38,4.38,4.38h76.17l58.8-21.66c2.25-.83,3.4-3.33,2.57-5.58Z"/>
  <circle class="cls-6" cx="47.49" cy="141.68" r="8.56"/>
  <circle class="cls-6" cx="64.74" cy="141.68" r="8.56"/>
  <path class="cls-9" d="m48.76,141.78c0,.79-.64,1.43-1.44,1.43s-1.43-.64-1.43-1.43.64-1.43,1.43-1.43,1.44.64,1.44,1.43Z"/>
  <path class="cls-3" d="m46.51,162.44h16.16s3.41.15,3.52-2.35c0,0-2.82-5.9-9.15-7.04,0,0-3.68-.4-5.32.29,0,0-4.81.88-8.37,6.27,0,0-1.45,2.82,3.17,2.82Z"/>
  <line class="cls-6" x1="50.78" y1="158.07" x2="58.56" y2="158.07"/>
  <path class="cls-9" d="m66.45,141.78c0,.79-.64,1.43-1.43,1.43s-1.43-.64-1.43-1.43.64-1.43,1.43-1.43,1.43.64,1.43,1.43Z"/>
  <path class="cls-8" d="m148.15,155.63c-6.81,10.41-17.5,9.77-17.5,9.77-16.04,0-19.77-6.73-19.77-6.73-.81-5.02,3-6.89,19.04-11.02,16.04-4.13,15.07-20.66,15.07-20.66l3.16,28.64Z"/>
  <path class="cls-6" d="m144.99,126.98s.97,16.53-15.07,20.66c-16.05,4.13-19.85,6-19.04,11.02,0,0,3.73,6.73,19.77,6.73,0,0,10.7.64,17.5-9.77"/>
  <g>
    <path class="cls-3" d="m93.56,252.68s-7.1.48-10.07,7.24c-.68,1.54,0,3.37,1.55,4.04,1.37.59,3.62,1.02,7.3.85,0,0,11.46-1.67,13.79-3.78,0,0,6.01-3-1-6.34,0,0-4.34-2.34-11.57-2Z"/>
    <path class="cls-3" d="m50.81,252.68s-7.1.48-10.07,7.24c-.68,1.54,0,3.37,1.55,4.04,1.37.59,3.62,1.02,7.3.85,0,0,11.46-1.67,13.79-3.78,0,0,6.01-3-1-6.34,0,0-4.34-2.34-11.57-2Z"/>
  </g>
</svg>