<svg width="36" height="36" viewBox="0 0 36 36" fill="none" xmlns="http://www.w3.org/2000/svg">
<g clip-path="url(#clip0_1004_1471)">
<path d="M18 0C8.055 0 0 8.055 0 18C0 27.945 8.055 36 18 36C27.945 36 36 27.945 36 18C36 8.055 27.945 0 18 0ZM16.02 22.5C16.02 23.625 15.12 24.48 14.04 24.48C12.915 24.48 12.06 23.58 12.06 22.5V13.5C12.015 12.42 12.915 11.52 13.995 11.52C15.12 11.52 16.02 12.42 16.02 13.5V22.5ZM23.985 22.5C23.985 23.625 23.085 24.48 22.005 24.48C20.88 24.48 20.025 23.58 20.025 22.5V13.5C19.98 12.42 20.88 11.52 21.96 11.52C23.085 11.52 23.985 12.42 23.985 13.5V22.5Z" fill="#734EF7"/>
</g>
<defs>
<clipPath id="clip0_1004_1471">
<rect width="36" height="36" fill="white"/>
</clipPath>
</defs>
</svg>
