<svg width="32" height="32" viewBox="0 0 32 32" fill="none" xmlns="http://www.w3.org/2000/svg">
<path d="M16 0C7.16 0 0 7.16 0 16C0 24.84 7.16 32 16 32C24.84 32 32 24.84 32 16C32 7.16 24.84 0 16 0ZM14.24 20C14.24 21 13.44 21.76 12.48 21.76C11.48 21.76 10.72 20.96 10.72 20V12C10.68 11.04 11.48 10.24 12.44 10.24C13.44 10.24 14.24 11.04 14.24 12V20ZM21.32 20C21.32 21 20.52 21.76 19.56 21.76C18.56 21.76 17.8 20.96 17.8 20V12C17.76 11.04 18.56 10.24 19.52 10.24C20.52 10.24 21.32 11.04 21.32 12V20Z" fill="#734EF7"/>
</svg>
