<svg width="19" height="19" viewBox="0 0 19 19" fill="none" xmlns="http://www.w3.org/2000/svg">
<path d="M15.58 9.81294C15.58 9.43294 15.2895 9.14235 14.9095 9.14235C14.5295 9.14235 14.2389 9.43294 14.2389 9.81294C14.2389 12.4282 12.1153 14.5518 9.50004 14.5518C6.88475 14.5518 4.76122 12.4282 4.76122 9.81294C4.76122 9.43294 4.47063 9.14235 4.09063 9.14235C3.71063 9.14235 3.42004 9.43294 3.42004 9.81294C3.42004 12.92 5.74475 15.5353 8.82946 15.8706V17.6588H6.39299C6.01299 17.6588 5.7224 17.9494 5.7224 18.3294C5.7224 18.7094 6.01299 19 6.39299 19H12.6071C12.9871 19 13.2777 18.7094 13.2777 18.3294C13.2777 17.9494 12.9871 17.6588 12.6071 17.6588H10.1706V15.8706C13.2553 15.5353 15.58 12.92 15.58 9.81294Z" fill="white"/>
<path d="M9.50003 0C7.44356 0 5.76709 1.67647 5.76709 3.73294V9.79059C5.76709 11.8694 7.44356 13.5235 9.50003 13.5459C11.5565 13.5459 13.233 11.8694 13.233 9.81294V3.73294C13.233 1.67647 11.5565 0 9.50003 0Z" fill="white"/>
</svg>
