<?xml version="1.0" encoding="UTF-8"?>
<svg id="_레이어_1" data-name="레이어 1" xmlns="http://www.w3.org/2000/svg" viewBox="0 0 190.16 268.55">
  <defs>
    <style>
      .cls-1 {
        fill: #fffee4;
      }

      .cls-1, .cls-2, .cls-3, .cls-4, .cls-5, .cls-6, .cls-7, .cls-8 {
        stroke-miterlimit: 10;
      }

      .cls-1, .cls-2, .cls-4, .cls-8 {
        stroke: #000;
      }

      .cls-2, .cls-3 {
        fill: #fff;
      }

      .cls-3, .cls-5, .cls-6, .cls-7 {
        stroke: #231815;
      }

      .cls-4 {
        fill: #ffb900;
      }

      .cls-5, .cls-9 {
        fill: #a5b0d6;
      }

      .cls-6 {
        fill: #b5bff1;
      }

      .cls-7, .cls-8 {
        fill: none;
      }

      .cls-10 {
        fill: #231815;
      }

      .cls-10, .cls-9 {
        stroke-width: 0px;
      }
    </style>
  </defs>
  <path class="cls-6" d="m28.2,157.11l-1.89-21.08s-3.44,11.19-9.6,11.43l11.49,9.65Z"/>
  <g>
    <circle class="cls-1" cx="92.3" cy="96.73" r="32.75"/>
    <circle class="cls-1" cx="129.91" cy="87.43" r="22.66"/>
    <circle class="cls-1" cx="143.83" cy="111.36" r="22.66"/>
  </g>
  <polygon class="cls-6" points="24.89 120.83 133.32 120.83 133.32 258.75 34.86 258.75 24.89 120.83"/>
  <polygon class="cls-5" points="178.78 120.83 170.27 258.75 133.32 258.75 133.32 120.83 178.78 120.83"/>
  <line class="cls-8" x1="58.56" y1="161.5" x2="58.56" y2="242.7"/>
  <line class="cls-8" x1="84.67" y1="161.5" x2="84.67" y2="242.7"/>
  <g>
    <path class="cls-4" d="m93.56,252.68s-7.1.48-10.07,7.24c-.68,1.54,0,3.37,1.55,4.04,1.37.59,3.62,1.02,7.3.85,0,0,11.46-1.67,13.79-3.78,0,0,6.01-3-1-6.34,0,0-4.34-2.34-11.57-2Z"/>
    <path class="cls-4" d="m50.81,252.68s-7.1.48-10.07,7.24c-.68,1.54,0,3.37,1.55,4.04,1.37.59,3.62,1.02,7.3.85,0,0,11.46-1.67,13.79-3.78,0,0,6.01-3-1-6.34,0,0-4.34-2.34-11.57-2Z"/>
  </g>
  <g>
    <polygon class="cls-6" points="48.6 58.66 126.23 58.66 93.98 134.35 19.59 134.35 48.6 58.66"/>
    <path class="cls-2" d="m27.37,128.19c.65.16,60.29,0,60.29,0l29.33-69.53h-63.53l-26.09,69.53Z"/>
    <path class="cls-5" d="m148.76,113.77l-22.43-54.86c-.04-.09-.17-.09-.2,0l-32.15,75.44,54.78-20.58Z"/>
    <path class="cls-3" d="m156.5,115.86l-.14-.37c-.83-2.25-3.33-3.4-5.58-2.57l-58.17,21.43H18.94c-2.42,0-4.38,1.96-4.38,4.38h0c0,2.42,1.96,4.38,4.38,4.38h76.17l58.8-21.66c2.25-.83,3.4-3.33,2.57-5.58Z"/>
    <circle class="cls-7" cx="57.99" cy="79.52" r="8.56"/>
    <circle class="cls-7" cx="75.24" cy="79.52" r="8.56"/>
    <path class="cls-10" d="m59.26,79.62c0,.79-.64,1.43-1.44,1.43s-1.43-.64-1.43-1.43.64-1.43,1.43-1.43,1.44.64,1.44,1.43Z"/>
    <path class="cls-4" d="m57.02,100.27h16.16s3.41.15,3.52-2.35c0,0-2.82-5.9-9.15-7.04,0,0-3.68-.4-5.32.29,0,0-4.81.88-8.37,6.27,0,0-1.45,2.82,3.17,2.82Z"/>
    <line class="cls-7" x1="61.28" y1="95.91" x2="69.07" y2="95.91"/>
    <path class="cls-10" d="m76.95,79.62c0,.79-.64,1.43-1.43,1.43s-1.43-.64-1.43-1.43.64-1.43,1.43-1.43,1.43.64,1.43,1.43Z"/>
  </g>
  <ellipse class="cls-6" cx="16.84" cy="139.27" rx="6.33" ry="7.66"/>
  <path class="cls-9" d="m141.89,134.93s-.36,9.66-17.73,2.44c-14.92-6.2-19.53-11.85-22.29-8.23-1.05,1.38-1.24,3.22-.76,4.88,1.08,3.73,2.8,12.67,14.39,19.03,0,0,14.34,6.45,25.64,2.11"/>
  <path class="cls-7" d="m141.56,134.79s-.36,9.66-17.73,2.44c-14.92-6.2-19.53-11.85-22.29-8.23-1.05,1.38-1.24,3.22-.76,4.88,1.08,3.73,3.12,12.81,14.71,19.17,0,0,14.01,6.31,25.32,1.97"/>
</svg>