<svg id="레이어_1" data-name="레이어 1" xmlns="http://www.w3.org/2000/svg" viewBox="0 0 190.16 268.55"><defs><style>.cls-1{fill:#b5bff1;}.cls-1,.cls-2,.cls-6,.cls-7{stroke:#231815;}.cls-1,.cls-2,.cls-3,.cls-4,.cls-5,.cls-6,.cls-7{stroke-miterlimit:10;}.cls-2{fill:#a5b0d6;}.cls-3,.cls-6{fill:none;}.cls-3,.cls-4,.cls-5{stroke:#000;}.cls-4{fill:#ffb900;}.cls-5,.cls-7,.cls-9{fill:#fff;}.cls-8{fill:#ff3646;}</style></defs><title>hwibari_smile_3</title><path class="cls-1" d="M25.89,128.5s-9.08,28.38-9.5,43.65c-.26,9.06,5,17.31,12.73,18.94l.88.15-3.27-52.43Z"/><polygon class="cls-1" points="24.89 120.83 133.32 120.83 133.32 258.75 34.86 258.75 24.89 120.83"/><polygon class="cls-2" points="178.78 120.83 170.27 258.75 133.32 258.75 133.32 120.83 178.78 120.83"/><line class="cls-3" x1="58.56" y1="161.5" x2="58.56" y2="242.7"/><line class="cls-3" x1="84.67" y1="161.5" x2="84.67" y2="242.7"/><path class="cls-4" d="M93.56,252.68s-7.11.48-10.08,7.24A3.07,3.07,0,0,0,85,264c1.38.59,3.63,1,7.3.85,0,0,11.46-1.67,13.8-3.79,0,0,6-3-1-6.34C105.13,254.68,100.79,252.35,93.56,252.68Z"/><path class="cls-4" d="M50.81,252.68s-7.11.48-10.08,7.24a3.07,3.07,0,0,0,1.55,4c1.38.59,3.63,1,7.3.85,0,0,11.46-1.67,13.8-3.79,0,0,6-3-1-6.34C62.38,254.68,58,252.35,50.81,252.68Z"/><polygon class="cls-1" points="54.69 24.45 156.05 25.84 129.04 116.62 26.91 117.64 54.69 24.45"/><path class="cls-5" d="M38.26,110.05c.58.2,81.32.12,81.32.12l26.35-84.34L64.24,24.49Z"/><ellipse class="cls-6" cx="77.71" cy="53.67" rx="11.63" ry="6.98" transform="translate(18.57 127.3) rotate(-85.86)"/><ellipse class="cls-6" cx="91.83" cy="54.69" rx="11.63" ry="6.98" transform="translate(30.65 142.33) rotate(-85.86)"/><path class="cls-6" d="M70.7,54.45s6.44-6.68,13.65,2"/><path class="cls-6" d="M85,55.62s6.44-6.69,13.65,2"/><path class="cls-2" d="M180.32,117.64,156.21,26.45a.18.18,0,0,0-.35,0l-27.54,91.19Z"/><path class="cls-7" d="M177.45,116.62H24.75a4.58,4.58,0,0,0-4.58,4.59h0a4.59,4.59,0,0,0,4.58,4.59h152.7a4.6,4.6,0,0,0,4.59-4.59h0A4.59,4.59,0,0,0,177.45,116.62Z"/><path class="cls-6" d="M143.55,135s-1.22,48.8,10.46,54.81c0,0,14.72,10.94,10.55-56.4"/><path class="cls-4" d="M91.57,70.52l-16.14-.75S72,69.47,71.81,72c0,0,2.53,6,8.81,7.46,0,0,3.66.57,5.33,0a14.13,14.13,0,0,0,8.66-5.87S96.18,70.74,91.57,70.52Z"/><line class="cls-6" x1="87.11" y1="74.68" x2="79.33" y2="74.32"/><path d="M12.36,29.93h2.11v2.12H12.36Z"/><path d="M42,29.93H44.1v2.12H42Z"/><path d="M12.36,32.05h2.11v2.11H12.36Z"/><path d="M42,32.05H44.1v2.11H42Z"/><path d="M12.36,34.16h2.11v2.12H12.36Z"/><path d="M42,34.16H44.1v2.12H42Z"/><path d="M14.47,38.4h2.12v2.11H14.47Z"/><path d="M39.87,38.4H42v2.11H39.87Z"/><path d="M12.36,36.28h2.11V38.4H12.36Z"/><path d="M42,36.28H44.1V38.4H42Z"/><path d="M14.47,40.51h2.12v2.12H14.47Z"/><path d="M39.87,40.51H42v2.12H39.87Z"/><path d="M16.59,42.63h2.12v2.11H16.59Z"/><path d="M37.75,42.63h2.12v2.11H37.75Z"/><path d="M18.71,44.74h2.11v2.12H18.71Z"/><path d="M35.64,44.74h2.11v2.12H35.64Z"/><path d="M20.82,46.86h2.12V49H20.82Z"/><path d="M33.52,46.86h2.12V49H33.52Z"/><path d="M22.94,49h2.11v2.11H22.94Z"/><path d="M31.4,49h2.12v2.11H31.4Z"/><path d="M14.47,27.82h2.12v2.11H14.47Z"/><path d="M39.87,27.82H42v2.11H39.87Z"/><path d="M18.71,25.7h2.11v2.12H18.71Z"/><path d="M16.59,25.7h2.12v2.12H16.59Z"/><path d="M20.82,25.7h2.12v2.12H20.82Z"/><path class="cls-8" d="M18.71,27.82h2.11v2.11H18.71Z"/><path class="cls-8" d="M16.59,27.82h2.12v2.11H16.59Z"/><path class="cls-8" d="M20.82,27.82h2.12v2.11H20.82Z"/><path class="cls-8" d="M35.64,27.82h2.11v2.11H35.64Z"/><path class="cls-8" d="M33.52,27.82h2.12v2.11H33.52Z"/><path class="cls-8" d="M37.75,27.82h2.12v2.11H37.75Z"/><path d="M22.94,27.82h2.11v2.11H22.94Z"/><path class="cls-8" d="M14.47,29.93h2.12v2.12H14.47Z"/><path class="cls-9" d="M18.71,29.93h2.11v2.12H18.71Z"/><path class="cls-9" d="M16.59,29.93h2.12v2.12H16.59Z"/><path class="cls-8" d="M20.82,29.93h2.12v2.12H20.82Z"/><path class="cls-8" d="M22.94,29.93h2.11v2.12H22.94Z"/><path class="cls-8" d="M14.47,32.05h2.12v2.11H14.47Z"/><path class="cls-8" d="M18.71,32.05h2.11v2.11H18.71Z"/><path class="cls-9" d="M16.59,32.05h2.12v2.11H16.59Z"/><path class="cls-8" d="M20.82,32.05h2.12v2.11H20.82Z"/><path class="cls-8" d="M22.94,32.05h2.11v2.11H22.94Z"/><path class="cls-8" d="M14.47,34.16h2.12v2.12H14.47Z"/><path class="cls-8" d="M18.71,34.16h2.11v2.12H18.71Z"/><path class="cls-8" d="M16.59,34.16h2.12v2.12H16.59Z"/><path class="cls-8" d="M20.82,34.16h2.12v2.12H20.82Z"/><path class="cls-8" d="M22.94,34.16h2.11v2.12H22.94Z"/><path class="cls-8" d="M14.47,36.28h2.12V38.4H14.47Z"/><path class="cls-8" d="M18.71,36.28h2.11V38.4H18.71Z"/><path class="cls-8" d="M16.59,36.28h2.12V38.4H16.59Z"/><path class="cls-8" d="M20.82,36.28h2.12V38.4H20.82Z"/><path class="cls-8" d="M22.94,36.28h2.11V38.4H22.94Z"/><path class="cls-8" d="M18.71,38.4h2.11v2.11H18.71Z"/><path class="cls-8" d="M16.59,38.4h2.12v2.11H16.59Z"/><path class="cls-8" d="M20.82,38.4h2.12v2.11H20.82Z"/><path class="cls-8" d="M22.94,38.4h2.11v2.11H22.94Z"/><path class="cls-8" d="M18.71,40.51h2.11v2.12H18.71Z"/><path class="cls-8" d="M16.59,40.51h2.12v2.12H16.59Z"/><path class="cls-8" d="M20.82,40.51h2.12v2.12H20.82Z"/><path class="cls-8" d="M22.94,40.51h2.11v2.12H22.94Z"/><path class="cls-8" d="M18.71,42.63h2.11v2.11H18.71Z"/><path class="cls-8" d="M20.82,42.63h2.12v2.11H20.82Z"/><path class="cls-8" d="M22.94,42.63h2.11v2.11H22.94Z"/><path class="cls-8" d="M20.82,44.74h2.12v2.12H20.82Z"/><path class="cls-8" d="M22.94,44.74h2.11v2.12H22.94Z"/><path class="cls-8" d="M22.94,46.86h2.11V49H22.94Z"/><path class="cls-8" d="M31.4,29.93h2.12v2.12H31.4Z"/><path class="cls-8" d="M35.64,29.93h2.11v2.12H35.64Z"/><path class="cls-8" d="M33.52,29.93h2.12v2.12H33.52Z"/><path class="cls-8" d="M37.75,29.93h2.12v2.12H37.75Z"/><path class="cls-8" d="M39.87,29.93H42v2.12H39.87Z"/><path class="cls-8" d="M31.4,32.05h2.12v2.11H31.4Z"/><path class="cls-8" d="M35.64,32.05h2.11v2.11H35.64Z"/><path class="cls-8" d="M33.52,32.05h2.12v2.11H33.52Z"/><path class="cls-8" d="M37.75,32.05h2.12v2.11H37.75Z"/><path class="cls-8" d="M39.87,32.05H42v2.11H39.87Z"/><path class="cls-8" d="M31.4,34.16h2.12v2.12H31.4Z"/><path class="cls-8" d="M35.64,34.16h2.11v2.12H35.64Z"/><path class="cls-8" d="M33.52,34.16h2.12v2.12H33.52Z"/><path class="cls-8" d="M37.75,34.16h2.12v2.12H37.75Z"/><path class="cls-8" d="M39.87,34.16H42v2.12H39.87Z"/><path class="cls-8" d="M31.4,36.28h2.12V38.4H31.4Z"/><path class="cls-8" d="M35.64,36.28h2.11V38.4H35.64Z"/><path class="cls-8" d="M33.52,36.28h2.12V38.4H33.52Z"/><path class="cls-8" d="M37.75,36.28h2.12V38.4H37.75Z"/><path class="cls-8" d="M31.4,38.4h2.12v2.11H31.4Z"/><path class="cls-8" d="M35.64,38.4h2.11v2.11H35.64Z"/><path class="cls-8" d="M33.52,38.4h2.12v2.11H33.52Z"/><path class="cls-8" d="M37.75,38.4h2.12v2.11H37.75Z"/><path class="cls-8" d="M31.4,40.51h2.12v2.12H31.4Z"/><path class="cls-8" d="M35.64,40.51h2.11v2.12H35.64Z"/><path class="cls-8" d="M33.52,40.51h2.12v2.12H33.52Z"/><path class="cls-8" d="M31.4,42.63h2.12v2.11H31.4Z"/><path class="cls-8" d="M35.64,42.63h2.11v2.11H35.64Z"/><path class="cls-8" d="M33.52,42.63h2.12v2.11H33.52Z"/><path class="cls-8" d="M31.4,44.74h2.12v2.12H31.4Z"/><path class="cls-8" d="M31.4,46.86h2.12V49H31.4Z"/><path class="cls-8" d="M33.52,44.74h2.12v2.12H33.52Z"/><path class="cls-8" d="M37.75,40.51h2.12v2.12H37.75Z"/><path class="cls-8" d="M39.87,36.28H42V38.4H39.87Z"/><path d="M25.05,29.93h2.12v2.12H25.05Z"/><path d="M27.17,32.05h2.12v2.11H27.17Z"/><path d="M31.4,27.82h2.12v2.11H31.4Z"/><path d="M29.29,29.93H31.4v2.12H29.29Z"/><path class="cls-8" d="M25.05,32.05h2.12v2.11H25.05Z"/><path class="cls-8" d="M27.17,34.16h2.12v2.12H27.17Z"/><path class="cls-8" d="M29.29,32.05H31.4v2.11H29.29Z"/><path class="cls-8" d="M25.05,34.16h2.12v2.12H25.05Z"/><path class="cls-8" d="M27.17,36.28h2.12V38.4H27.17Z"/><path class="cls-8" d="M29.29,34.16H31.4v2.12H29.29Z"/><path class="cls-8" d="M25.05,36.28h2.12V38.4H25.05Z"/><path class="cls-8" d="M27.17,38.4h2.12v2.11H27.17Z"/><path class="cls-8" d="M29.29,36.28H31.4V38.4H29.29Z"/><path class="cls-8" d="M25.05,38.4h2.12v2.11H25.05Z"/><path class="cls-8" d="M27.17,40.51h2.12v2.12H27.17Z"/><path class="cls-8" d="M29.29,38.4H31.4v2.11H29.29Z"/><path class="cls-8" d="M25.05,40.51h2.12v2.12H25.05Z"/><path class="cls-8" d="M27.17,42.63h2.12v2.11H27.17Z"/><path class="cls-8" d="M29.29,40.51H31.4v2.12H29.29Z"/><path class="cls-8" d="M25.05,42.63h2.12v2.11H25.05Z"/><path class="cls-8" d="M27.17,44.74h2.12v2.12H27.17Z"/><path class="cls-8" d="M29.29,42.63H31.4v2.11H29.29Z"/><path class="cls-8" d="M25.05,44.74h2.12v2.12H25.05Z"/><path class="cls-8" d="M27.17,46.86h2.12V49H27.17Z"/><path class="cls-8" d="M29.29,44.74H31.4v2.12H29.29Z"/><path class="cls-8" d="M25.05,46.86h2.12V49H25.05Z"/><path class="cls-8" d="M27.17,49h2.12v2.11H27.17Z"/><path class="cls-8" d="M29.29,46.86H31.4V49H29.29Z"/><path class="cls-8" d="M25.05,49h2.12v2.11H25.05Z"/><path class="cls-8" d="M27.17,51.09h2.12v2.12H27.17Z"/><path class="cls-8" d="M29.29,49H31.4v2.11H29.29Z"/><path d="M25.05,51.09h2.12v2.12H25.05Z"/><path d="M27.17,53.21h2.12v2.12H27.17Z"/><path d="M29.29,51.09H31.4v2.12H29.29Z"/><path d="M33.52,25.7h2.12v2.12H33.52Z"/><path d="M35.64,25.7h2.11v2.12H35.64Z"/><path d="M37.75,25.7h2.12v2.12H37.75Z"/></svg>