<svg width="18" height="18" viewBox="0 0 18 18" fill="none" xmlns="http://www.w3.org/2000/svg">
<g clip-path="url(#clip0_1_930)">
<path d="M13.9322 10.0897C13.4371 7.59778 15.8023 6.13632 15.8023 6.13632C15.8023 6.13632 14.8808 4.80308 13.3321 4.4601C11.7841 4.11636 11.0093 4.54583 10.2361 4.86794C9.46211 5.19083 9.0759 5.19083 9.0759 5.19083C7.95896 5.19083 7.14246 4.00822 5.0144 4.54662C3.54832 4.9166 2.00495 6.60904 1.7261 8.62899C1.44725 10.6497 2.049 13.2281 3.2092 15.2264C4.3694 17.2263 5.55126 17.9779 6.3901 17.9995C7.22898 18.0203 8.06632 17.3985 9.0759 17.2471C10.0863 17.0973 10.7081 17.6133 11.6991 17.8921C12.6863 18.1702 13.0323 17.9122 14.1694 16.9451C15.3095 15.978 16.3415 13.2042 16.3415 13.2042C16.3415 13.2042 14.4274 12.5831 13.9322 10.0897ZM11.74 2.84798C12.8369 1.73029 12.4654 0 12.4654 0C12.4654 0 10.9251 0.270363 9.89312 1.34405C8.8619 2.41852 9.03261 4.11557 9.03261 4.11557C9.03261 4.11557 10.6431 3.96496 11.74 2.84798Z" fill="white"/>
</g>
<defs>
<clipPath id="clip0_1_930">
<rect width="18" height="18" fill="white"/>
</clipPath>
</defs>
</svg>
