<svg width="36" height="36" viewBox="0 0 36 36" fill="none" xmlns="http://www.w3.org/2000/svg">
<g clip-path="url(#clip0_1002_1467)">
<path d="M18 0C8.07419 0 0 8.07497 0 18C0 27.9251 8.07419 36 18 36C27.9258 36 36 27.9251 36 18C36 8.07497 27.9258 0 18 0ZM25.1558 18.6307L14.6558 25.3807C14.5328 25.4604 14.3907 25.5 14.25 25.5C14.127 25.5 14.0024 25.4692 13.8912 25.4085C13.6494 25.2766 13.5 25.0246 13.5 24.75V11.25C13.5 10.9754 13.6494 10.7234 13.8912 10.5915C14.1284 10.4612 14.4258 10.4692 14.6558 10.6194L25.1558 17.3693C25.3697 17.507 25.5 17.7451 25.5 18C25.5 18.2549 25.3697 18.4929 25.1558 18.6307Z" fill="#734EF7"/>
</g>
<defs>
<clipPath id="clip0_1002_1467">
<rect width="36" height="36" fill="white"/>
</clipPath>
</defs>
</svg>
