<svg width="21" height="17" viewBox="0 0 21 17" fill="none" xmlns="http://www.w3.org/2000/svg">
<path d="M1.11344 9.31223L6.15158 15.7938C6.33096 16.0245 6.57529 16.15 6.8298 16.15C7.08431 16.15 7.32865 16.0245 7.50803 15.7938C7.85928 15.3419 7.85928 14.6212 7.50803 14.1693L4.0095 9.66847L19.2083 9.66847C19.7614 9.66847 20.15 9.10797 20.15 8.5C20.15 7.89203 19.7614 7.33153 19.2083 7.33153L4.0095 7.33153L7.50802 2.8307C7.85928 2.37881 7.85928 1.65814 7.50802 1.20625C7.32865 0.975479 7.08431 0.849999 6.8298 0.849999C6.57529 0.849999 6.33096 0.975479 6.15158 1.20625L1.11344 7.68777C0.762186 8.13967 0.762186 8.86033 1.11344 9.31223Z" fill="white" stroke="white" stroke-width="0.3" stroke-linejoin="round"/>
</svg>
