<?xml version="1.0" encoding="UTF-8"?>
<svg id="_레이어_1" data-name="레이어 1" xmlns="http://www.w3.org/2000/svg" viewBox="0 0 190.16 268.55">
  <defs>
    <style>
      .cls-1, .cls-2 {
        fill: #fff;
      }

      .cls-1, .cls-2, .cls-3, .cls-4, .cls-5, .cls-6, .cls-7 {
        stroke-miterlimit: 10;
      }

      .cls-1, .cls-3, .cls-7 {
        stroke: #000;
      }

      .cls-2, .cls-4, .cls-5, .cls-6 {
        stroke: #231815;
      }

      .cls-3 {
        fill: #ffb900;
      }

      .cls-4 {
        fill: #a5b0d6;
      }

      .cls-5 {
        fill: #b5bff1;
      }

      .cls-6, .cls-7 {
        fill: none;
      }

      .cls-8 {
        fill: #231815;
        stroke-width: 0px;
      }
    </style>
  </defs>
  <path class="cls-5" d="m25.89,128.5s-9.08,28.38-9.5,43.65c-.25,9.06,5.04,17.31,12.74,18.94.29.06.59.11.88.15l-3.27-52.43-.84-10.31Z"/>
  <polygon class="cls-5" points="24.89 120.83 133.32 120.83 133.32 258.75 34.86 258.75 24.89 120.83"/>
  <polygon class="cls-4" points="178.78 120.83 170.27 258.75 133.32 258.75 133.32 120.83 178.78 120.83"/>
  <line class="cls-7" x1="58.56" y1="161.5" x2="58.56" y2="242.7"/>
  <line class="cls-7" x1="84.67" y1="161.5" x2="84.67" y2="242.7"/>
  <g>
    <path class="cls-3" d="m93.56,252.68s-7.1.48-10.07,7.24c-.68,1.54,0,3.37,1.55,4.04,1.37.59,3.62,1.02,7.3.85,0,0,11.46-1.67,13.79-3.78,0,0,6.01-3-1-6.34,0,0-4.34-2.34-11.57-2Z"/>
    <path class="cls-3" d="m50.81,252.68s-7.1.48-10.07,7.24c-.68,1.54,0,3.37,1.55,4.04,1.37.59,3.62,1.02,7.3.85,0,0,11.46-1.67,13.79-3.78,0,0,6.01-3-1-6.34,0,0-4.34-2.34-11.57-2Z"/>
  </g>
  <polygon class="cls-5" points="54.69 24.45 156.05 25.83 129.04 116.62 26.91 117.64 54.69 24.45"/>
  <path class="cls-1" d="m38.26,110.05c.58.2,81.32.12,81.32.12l26.35-84.34-81.69-1.34-25.98,85.56Z"/>
  <g>
    <g>
      <circle class="cls-6" cx="73.94" cy="54.63" r="10.64"/>
      <circle class="cls-6" cx="95.39" cy="54.63" r="10.64"/>
      <path class="cls-8" d="m75.51,54.76c0,.99-.8,1.78-1.78,1.78s-1.78-.8-1.78-1.78.8-1.78,1.78-1.78,1.78.8,1.78,1.78Z"/>
      <path class="cls-8" d="m97.52,54.76c0,.99-.8,1.78-1.78,1.78s-1.78-.8-1.78-1.78.8-1.78,1.78-1.78,1.78.8,1.78,1.78Z"/>
      <path class="cls-3" d="m72.73,80.44h20.09s4.23.18,4.38-2.92c0,0-3.5-7.34-11.38-8.75,0,0-4.57-.5-6.62.36,0,0-5.98,1.09-10.41,7.79,0,0-1.8,3.51,3.94,3.51Z"/>
    </g>
    <line class="cls-6" x1="78.03" y1="75.01" x2="87.71" y2="75.01"/>
  </g>
  <path class="cls-4" d="m180.32,117.64l-24.11-91.18c-.05-.18-.29-.18-.35,0l-27.54,91.19h52Z"/>
  <rect class="cls-2" x="20.17" y="116.62" width="161.87" height="9.18" rx="4.59" ry="4.59"/>
  <path class="cls-6" d="m143.55,135.03s-1.22,48.8,10.46,54.82c0,0,14.72,10.94,10.55-56.4"/>
</svg>